<mxfile host="app.diagrams.net" agent="Mozilla/5.0 (Windows NT 10.0; Win64; x64) AppleWebKit/537.36 (KHTML, like Gecko) Chrome/131.0.0.0 Safari/537.36 OPR/116.0.0.0" version="26.0.16">
  <diagram name="Page-1" id="OmSC2UjBU24nixa1iJVq">
    <mxGraphModel dx="1783" dy="767" grid="1" gridSize="10" guides="1" tooltips="1" connect="1" arrows="1" fold="1" page="1" pageScale="1" pageWidth="850" pageHeight="1100" math="0" shadow="0">
      <root>
        <mxCell id="0" />
        <mxCell id="1" parent="0" />
        <mxCell id="bAwtupnoEnWgZLj2wCrY-3" value="" style="edgeStyle=orthogonalEdgeStyle;rounded=0;orthogonalLoop=1;jettySize=auto;html=1;" edge="1" parent="1" source="bAwtupnoEnWgZLj2wCrY-1" target="bAwtupnoEnWgZLj2wCrY-2">
          <mxGeometry relative="1" as="geometry" />
        </mxCell>
        <mxCell id="bAwtupnoEnWgZLj2wCrY-1" value="MULAI" style="rounded=1;whiteSpace=wrap;html=1;" vertex="1" parent="1">
          <mxGeometry x="365" y="20" width="120" height="60" as="geometry" />
        </mxCell>
        <mxCell id="bAwtupnoEnWgZLj2wCrY-5" value="" style="edgeStyle=orthogonalEdgeStyle;rounded=0;orthogonalLoop=1;jettySize=auto;html=1;" edge="1" parent="1" source="bAwtupnoEnWgZLj2wCrY-2" target="bAwtupnoEnWgZLj2wCrY-4">
          <mxGeometry relative="1" as="geometry" />
        </mxCell>
        <mxCell id="bAwtupnoEnWgZLj2wCrY-2" value="INPUT a,b,c" style="shape=parallelogram;perimeter=parallelogramPerimeter;whiteSpace=wrap;html=1;fixedSize=1;" vertex="1" parent="1">
          <mxGeometry x="365" y="110" width="120" height="60" as="geometry" />
        </mxCell>
        <mxCell id="bAwtupnoEnWgZLj2wCrY-7" value="" style="edgeStyle=orthogonalEdgeStyle;rounded=0;orthogonalLoop=1;jettySize=auto;html=1;" edge="1" parent="1" source="bAwtupnoEnWgZLj2wCrY-4" target="bAwtupnoEnWgZLj2wCrY-6">
          <mxGeometry relative="1" as="geometry" />
        </mxCell>
        <mxCell id="bAwtupnoEnWgZLj2wCrY-4" value="d = b**2 - 4*a*c" style="shape=hexagon;perimeter=hexagonPerimeter2;whiteSpace=wrap;html=1;fixedSize=1;" vertex="1" parent="1">
          <mxGeometry x="365" y="200" width="120" height="80" as="geometry" />
        </mxCell>
        <mxCell id="bAwtupnoEnWgZLj2wCrY-9" value="" style="edgeStyle=orthogonalEdgeStyle;rounded=0;orthogonalLoop=1;jettySize=auto;html=1;" edge="1" parent="1" source="bAwtupnoEnWgZLj2wCrY-6" target="bAwtupnoEnWgZLj2wCrY-8">
          <mxGeometry relative="1" as="geometry" />
        </mxCell>
        <mxCell id="bAwtupnoEnWgZLj2wCrY-12" value="Ya" style="edgeLabel;html=1;align=center;verticalAlign=middle;resizable=0;points=[];" vertex="1" connectable="0" parent="bAwtupnoEnWgZLj2wCrY-9">
          <mxGeometry x="-0.1307" y="2" relative="1" as="geometry">
            <mxPoint as="offset" />
          </mxGeometry>
        </mxCell>
        <mxCell id="bAwtupnoEnWgZLj2wCrY-11" value="" style="edgeStyle=orthogonalEdgeStyle;rounded=0;orthogonalLoop=1;jettySize=auto;html=1;" edge="1" parent="1" source="bAwtupnoEnWgZLj2wCrY-6" target="bAwtupnoEnWgZLj2wCrY-10">
          <mxGeometry relative="1" as="geometry" />
        </mxCell>
        <mxCell id="bAwtupnoEnWgZLj2wCrY-13" value="Tidak" style="edgeLabel;html=1;align=center;verticalAlign=middle;resizable=0;points=[];" vertex="1" connectable="0" parent="bAwtupnoEnWgZLj2wCrY-11">
          <mxGeometry x="-0.18" y="3" relative="1" as="geometry">
            <mxPoint x="-3" as="offset" />
          </mxGeometry>
        </mxCell>
        <mxCell id="bAwtupnoEnWgZLj2wCrY-6" value="d &amp;gt; 0" style="rhombus;whiteSpace=wrap;html=1;" vertex="1" parent="1">
          <mxGeometry x="365" y="310" width="120" height="80" as="geometry" />
        </mxCell>
        <mxCell id="bAwtupnoEnWgZLj2wCrY-28" style="edgeStyle=orthogonalEdgeStyle;rounded=0;orthogonalLoop=1;jettySize=auto;html=1;entryX=1;entryY=1;entryDx=0;entryDy=0;" edge="1" parent="1" target="bAwtupnoEnWgZLj2wCrY-27">
          <mxGeometry relative="1" as="geometry">
            <mxPoint x="680" y="320" as="sourcePoint" />
            <Array as="points">
              <mxPoint x="760" y="320" />
              <mxPoint x="760" y="676" />
              <mxPoint x="440" y="676" />
            </Array>
          </mxGeometry>
        </mxCell>
        <mxCell id="bAwtupnoEnWgZLj2wCrY-8" value="hasil = &quot;Akar Real dan Berlainan&quot;" style="whiteSpace=wrap;html=1;" vertex="1" parent="1">
          <mxGeometry x="560" y="320" width="120" height="60" as="geometry" />
        </mxCell>
        <mxCell id="bAwtupnoEnWgZLj2wCrY-15" value="" style="edgeStyle=orthogonalEdgeStyle;rounded=0;orthogonalLoop=1;jettySize=auto;html=1;" edge="1" parent="1" source="bAwtupnoEnWgZLj2wCrY-10" target="bAwtupnoEnWgZLj2wCrY-14">
          <mxGeometry relative="1" as="geometry" />
        </mxCell>
        <mxCell id="bAwtupnoEnWgZLj2wCrY-16" value="Ya" style="edgeLabel;html=1;align=center;verticalAlign=middle;resizable=0;points=[];" vertex="1" connectable="0" parent="bAwtupnoEnWgZLj2wCrY-15">
          <mxGeometry x="-0.104" y="3" relative="1" as="geometry">
            <mxPoint as="offset" />
          </mxGeometry>
        </mxCell>
        <mxCell id="bAwtupnoEnWgZLj2wCrY-19" value="" style="edgeStyle=orthogonalEdgeStyle;rounded=0;orthogonalLoop=1;jettySize=auto;html=1;" edge="1" parent="1" source="bAwtupnoEnWgZLj2wCrY-10" target="bAwtupnoEnWgZLj2wCrY-18">
          <mxGeometry relative="1" as="geometry" />
        </mxCell>
        <mxCell id="bAwtupnoEnWgZLj2wCrY-20" value="Tidak" style="edgeLabel;html=1;align=center;verticalAlign=middle;resizable=0;points=[];" vertex="1" connectable="0" parent="bAwtupnoEnWgZLj2wCrY-19">
          <mxGeometry x="-0.1834" y="1" relative="1" as="geometry">
            <mxPoint x="-1" as="offset" />
          </mxGeometry>
        </mxCell>
        <mxCell id="bAwtupnoEnWgZLj2wCrY-10" value="d == 0" style="rhombus;whiteSpace=wrap;html=1;" vertex="1" parent="1">
          <mxGeometry x="365" y="430" width="120" height="80" as="geometry" />
        </mxCell>
        <mxCell id="bAwtupnoEnWgZLj2wCrY-29" style="edgeStyle=orthogonalEdgeStyle;rounded=0;orthogonalLoop=1;jettySize=auto;html=1;entryX=1;entryY=0;entryDx=0;entryDy=0;" edge="1" parent="1" target="bAwtupnoEnWgZLj2wCrY-27">
          <mxGeometry relative="1" as="geometry">
            <mxPoint x="680" y="440" as="sourcePoint" />
            <Array as="points">
              <mxPoint x="720" y="440" />
              <mxPoint x="720" y="654" />
              <mxPoint x="440" y="654" />
            </Array>
          </mxGeometry>
        </mxCell>
        <mxCell id="bAwtupnoEnWgZLj2wCrY-14" value="hasil = &quot;Akar Real dan Kembar&quot;" style="whiteSpace=wrap;html=1;" vertex="1" parent="1">
          <mxGeometry x="560" y="440" width="120" height="60" as="geometry" />
        </mxCell>
        <mxCell id="bAwtupnoEnWgZLj2wCrY-22" value="" style="edgeStyle=orthogonalEdgeStyle;rounded=0;orthogonalLoop=1;jettySize=auto;html=1;" edge="1" parent="1" source="bAwtupnoEnWgZLj2wCrY-27" target="bAwtupnoEnWgZLj2wCrY-21">
          <mxGeometry relative="1" as="geometry" />
        </mxCell>
        <mxCell id="bAwtupnoEnWgZLj2wCrY-18" value="hasil = &quot;Akar Imajiner/Tidak Real/Khayal&quot;" style="whiteSpace=wrap;html=1;" vertex="1" parent="1">
          <mxGeometry x="365" y="560" width="120" height="60" as="geometry" />
        </mxCell>
        <mxCell id="bAwtupnoEnWgZLj2wCrY-31" value="" style="edgeStyle=orthogonalEdgeStyle;rounded=0;orthogonalLoop=1;jettySize=auto;html=1;" edge="1" parent="1" source="bAwtupnoEnWgZLj2wCrY-21" target="bAwtupnoEnWgZLj2wCrY-30">
          <mxGeometry relative="1" as="geometry" />
        </mxCell>
        <mxCell id="bAwtupnoEnWgZLj2wCrY-21" value="OUTPUT hasil" style="shape=parallelogram;perimeter=parallelogramPerimeter;whiteSpace=wrap;html=1;fixedSize=1;" vertex="1" parent="1">
          <mxGeometry x="365" y="710" width="120" height="60" as="geometry" />
        </mxCell>
        <mxCell id="bAwtupnoEnWgZLj2wCrY-26" value="" style="edgeStyle=orthogonalEdgeStyle;rounded=0;orthogonalLoop=1;jettySize=auto;html=1;" edge="1" parent="1" source="bAwtupnoEnWgZLj2wCrY-18" target="bAwtupnoEnWgZLj2wCrY-27">
          <mxGeometry relative="1" as="geometry">
            <mxPoint x="425" y="620" as="sourcePoint" />
            <mxPoint x="425" y="700" as="targetPoint" />
          </mxGeometry>
        </mxCell>
        <mxCell id="bAwtupnoEnWgZLj2wCrY-27" value="" style="ellipse;whiteSpace=wrap;html=1;aspect=fixed;" vertex="1" parent="1">
          <mxGeometry x="410" y="650" width="30" height="30" as="geometry" />
        </mxCell>
        <mxCell id="bAwtupnoEnWgZLj2wCrY-30" value="SELESAI" style="rounded=1;whiteSpace=wrap;html=1;" vertex="1" parent="1">
          <mxGeometry x="365" y="810" width="120" height="60" as="geometry" />
        </mxCell>
      </root>
    </mxGraphModel>
  </diagram>
</mxfile>
